<svg width="1680" height="245" viewBox="0 0 1680 245" fill="none" xmlns="http://www.w3.org/2000/svg">
<rect width="260.232" height="244.21" fill="#005DBF"/>
<rect x="86.7441" y="81.4034" width="86.7441" height="81.4034" fill="#005DBF"/>
<path fill-rule="evenodd" clip-rule="evenodd" d="M86.7441 2.41306e-06L43.3721 0L43.3721 186.523L43.3721 203.509L173.488 172.982V244.21L216.86 244.21V162.807L216.86 162.807V122.105L216.86 122.105V81.4035L216.86 81.4034V40.7017L86.7441 71.228L86.7441 2.41306e-06ZM86.7441 111.93L86.7441 152.631L173.488 132.281V91.5789L86.7441 111.93Z" fill="url(#paint0_linear_1_21)"/>
<path d="M341.996 213.605V46.1651H377.096V186.565H459.516V213.605H341.996ZM469.191 67.7451V40.1851H507.411V67.7451H469.191ZM472.051 213.605V116.365H453.591L456.711 90.3651H507.151V213.605H472.051ZM590.857 216.205C568.843 216.205 551.943 210.745 540.157 199.825C528.543 188.905 522.737 172.958 522.737 151.985C522.737 130.318 528.977 114.198 541.457 103.625C554.11 93.0518 570.923 87.7651 591.897 87.7651C600.563 87.7651 608.017 88.3718 614.257 89.5851C620.497 90.7984 626.563 92.7918 632.457 95.5651V120.785C628.123 118.705 623.097 117.058 617.377 115.845C611.657 114.632 605.503 114.025 598.917 114.025C585.743 114.025 575.69 116.798 568.757 122.345C561.823 127.718 558.357 137.598 558.357 151.985C558.357 165.158 561.477 174.778 567.717 180.845C574.13 186.912 584.443 189.945 598.657 189.945C604.723 189.945 610.617 189.338 616.337 188.125C622.23 186.912 627.69 185.092 632.717 182.665V208.665C621.103 213.692 607.15 216.205 590.857 216.205ZM710.01 216.205C688.69 216.205 671.79 210.918 659.31 200.345C646.83 189.598 640.59 173.392 640.59 151.725C640.59 132.138 645.79 116.625 656.19 105.185C666.763 93.5718 682.45 87.7651 703.25 87.7651C722.317 87.7651 736.877 92.7918 746.93 102.845C757.157 112.725 762.27 125.725 762.27 141.845V164.205H673.09C674.997 174.085 679.503 180.845 686.61 184.485C693.89 188.125 704.117 189.945 717.29 189.945C723.877 189.945 730.55 189.338 737.31 188.125C744.243 186.912 750.137 185.352 754.99 183.445V208.405C749.27 211.005 742.597 212.912 734.97 214.125C727.343 215.512 719.023 216.205 710.01 216.205ZM673.09 142.625H731.59V135.865C731.59 128.758 729.51 123.212 725.35 119.225C721.19 115.065 714.17 112.985 704.29 112.985C692.677 112.985 684.53 115.325 679.85 120.005C675.343 124.685 673.09 132.225 673.09 142.625ZM777.608 213.605V90.3651H810.108L811.408 102.065C816.434 98.2518 822.761 94.9584 830.388 92.1851C838.188 89.2384 846.334 87.7651 854.828 87.7651C871.121 87.7651 882.994 91.5784 890.448 99.2051C897.901 106.832 901.628 118.618 901.628 134.565V213.605H866.528V136.385C866.528 128.065 864.794 122.172 861.328 118.705C858.034 115.238 851.794 113.505 842.608 113.505C837.234 113.505 831.774 114.718 826.228 117.145C820.854 119.572 816.348 122.605 812.708 126.245V213.605H777.608ZM964.525 216.205C955.339 216.205 946.585 215.512 938.265 214.125C929.945 212.912 923.272 211.352 918.245 209.445V180.325C924.312 182.752 931.159 184.658 938.785 186.045C946.412 187.258 953.432 187.865 959.845 187.865C968.512 187.865 974.579 187.345 978.045 186.305C981.685 185.265 983.505 182.925 983.505 179.285C983.505 175.125 980.732 172.092 975.185 170.185C969.812 168.278 961.752 165.592 951.005 162.125C939.739 158.312 931.072 153.718 925.005 148.345C918.939 142.972 915.905 134.998 915.905 124.425C915.905 112.638 920.152 103.625 928.645 97.3851C937.312 90.9718 951.179 87.7651 970.245 87.7651C977.872 87.7651 985.065 88.3718 991.825 89.5851C998.585 90.6251 1004.31 91.9251 1008.99 93.4851V122.345C1004.31 120.092 998.932 118.445 992.865 117.405C986.799 116.192 981.165 115.585 975.965 115.585C968.512 115.585 962.532 116.105 958.025 117.145C953.692 118.185 951.525 120.438 951.525 123.905C951.525 127.718 953.865 130.405 958.545 131.965C963.399 133.525 970.852 135.865 980.905 138.985C990.785 141.932 998.499 145.138 1004.05 148.605C1009.59 152.072 1013.49 156.232 1015.75 161.085C1018 165.765 1019.13 171.658 1019.13 178.765C1019.13 203.725 1000.93 216.205 964.525 216.205ZM1098.61 216.205C1077.29 216.205 1060.39 210.918 1047.91 200.345C1035.43 189.598 1029.19 173.392 1029.19 151.725C1029.19 132.138 1034.39 116.625 1044.79 105.185C1055.36 93.5718 1071.05 87.7651 1091.85 87.7651C1110.91 87.7651 1125.47 92.7918 1135.53 102.845C1145.75 112.725 1150.87 125.725 1150.87 141.845V164.205H1061.69C1063.59 174.085 1068.1 180.845 1075.21 184.485C1082.49 188.125 1092.71 189.945 1105.89 189.945C1112.47 189.945 1119.15 189.338 1125.91 188.125C1132.84 186.912 1138.73 185.352 1143.59 183.445V208.405C1137.87 211.005 1131.19 212.912 1123.57 214.125C1115.94 215.512 1107.62 216.205 1098.61 216.205ZM1061.69 142.625H1120.19V135.865C1120.19 128.758 1118.11 123.212 1113.95 119.225C1109.79 115.065 1102.77 112.985 1092.89 112.985C1081.27 112.985 1073.13 115.325 1068.45 120.005C1063.94 124.685 1061.69 132.225 1061.69 142.625ZM1255.91 216.205C1227.83 216.205 1206.51 208.838 1191.95 194.105C1177.39 179.372 1170.11 158.918 1170.11 132.745C1170.11 105.012 1177.47 83.2584 1192.21 67.4851C1206.94 51.5384 1228.87 43.5651 1257.99 43.5651C1268.04 43.5651 1277.14 44.1718 1285.29 45.3851C1293.43 46.4251 1301.15 48.1584 1308.43 50.5851V80.7451C1301.15 78.1451 1293.43 76.3251 1285.29 75.2851C1277.31 74.0718 1269.08 73.4651 1260.59 73.4651C1240.65 73.4651 1226.53 78.4051 1218.21 88.2851C1209.89 97.9918 1205.73 112.812 1205.73 132.745C1205.73 168.625 1222.63 186.565 1256.43 186.565C1262.32 186.565 1268.04 186.132 1273.59 185.265C1279.31 184.225 1284.33 182.925 1288.67 181.365V142.365H1249.67V120.005H1318.31V201.905C1312.59 205.545 1304.61 208.838 1294.39 211.785C1284.16 214.732 1271.33 216.205 1255.91 216.205ZM1372.27 216.205C1364.47 216.205 1357.19 214.818 1350.43 212.045C1343.84 209.098 1338.47 204.852 1334.31 199.305C1330.32 193.585 1328.33 186.478 1328.33 177.985C1328.33 165.852 1332.58 156.145 1341.07 148.865C1349.74 141.585 1362.48 137.945 1379.29 137.945H1415.69V134.565C1415.69 126.938 1413.52 121.565 1409.19 118.445C1405.03 115.325 1396.54 113.765 1383.71 113.765C1369.67 113.765 1356.15 115.932 1343.15 120.265V95.5651C1348.87 93.3118 1355.8 91.4918 1363.95 90.1051C1372.27 88.5451 1381.28 87.7651 1390.99 87.7651C1409.54 87.7651 1423.84 91.5784 1433.89 99.2051C1444.12 106.658 1449.23 118.705 1449.23 135.345V213.605H1418.81L1416.99 202.425C1412.14 206.758 1406.16 210.138 1399.05 212.565C1391.94 214.992 1383.02 216.205 1372.27 216.205ZM1381.89 193.065C1389.69 193.065 1396.45 191.765 1402.17 189.165C1407.89 186.565 1412.4 183.272 1415.69 179.285V159.785H1380.07C1366.38 159.785 1359.53 165.418 1359.53 176.685C1359.53 187.605 1366.98 193.065 1381.89 193.065ZM1517.28 216.205C1503.06 216.205 1492.49 212.478 1485.56 205.025C1478.8 197.572 1475.42 187.432 1475.42 174.605V117.405H1458V90.3651H1475.42V63.8451L1510.52 53.4451V90.3651H1541.72L1539.64 117.405H1510.52V172.265C1510.52 179.025 1512.08 183.705 1515.2 186.305C1518.32 188.732 1523.17 189.945 1529.76 189.945C1534.61 189.945 1539.64 189.078 1544.84 187.345V211.525C1541.02 213.085 1536.86 214.212 1532.36 214.905C1527.85 215.772 1522.82 216.205 1517.28 216.205ZM1617.97 216.205C1596.65 216.205 1579.75 210.918 1567.27 200.345C1554.79 189.598 1548.55 173.392 1548.55 151.725C1548.55 132.138 1553.75 116.625 1564.15 105.185C1574.72 93.5718 1590.41 87.7651 1611.21 87.7651C1630.28 87.7651 1644.84 92.7918 1654.89 102.845C1665.12 112.725 1670.23 125.725 1670.23 141.845V164.205H1581.05C1582.96 174.085 1587.46 180.845 1594.57 184.485C1601.85 188.125 1612.08 189.945 1625.25 189.945C1631.84 189.945 1638.51 189.338 1645.27 188.125C1652.2 186.912 1658.1 185.352 1662.95 183.445V208.405C1657.23 211.005 1650.56 212.912 1642.93 214.125C1635.3 215.512 1626.98 216.205 1617.97 216.205ZM1581.05 142.625H1639.55V135.865C1639.55 128.758 1637.47 123.212 1633.31 119.225C1629.15 115.065 1622.13 112.985 1612.25 112.985C1600.64 112.985 1592.49 115.325 1587.81 120.005C1583.3 124.685 1581.05 132.225 1581.05 142.625Z" fill="#005DBF"/>
<defs>
<linearGradient id="paint0_linear_1_21" x1="43.3721" y1="0" x2="201.98" y2="253.52" gradientUnits="userSpaceOnUse">
<stop stop-color="#F5F5F5"/>
<stop offset="1" stop-color="#9BC3FF"/>
</linearGradient>
</defs>
</svg>
